<?xml version="1.0" encoding="UTF-8"?>
<svg version="1.1" xmlns="http://www.w3.org/2000/svg" width="413" height="278">
<path d="M0 0 C-0.78618642 3.10639514 -1.65209798 6.08752698 -3 9 C-5.41015625 10.34765625 -5.41015625 10.34765625 -8 11 C-11.31862304 13.2404917 -13.92243343 15.55575834 -16 19 C-16.08769922 22.92582996 -15.25272775 26.29628316 -14 30 C-13.01 30 -12.02 30 -11 30 C-11.58678331 33.52069985 -12.35649921 35.71299843 -14 39 C-19.28 39 -24.56 39 -30 39 C-30.8454215 36.31578673 -31.67647233 33.62843232 -32.5 30.9375 C-32.73847656 30.18533203 -32.97695312 29.43316406 -33.22265625 28.65820312 C-34.63214654 24.00688516 -35.77640493 19.88025957 -35 15 C-33.29532874 11.9624128 -31.1704763 9.55401369 -28.75 7.0625 C-28.09700928 6.38952881 -27.44401855 5.71655762 -26.77124023 5.02319336 C-18.77143903 -2.3154519 -10.18979966 -1.39657153 0 0 Z " fill="#6E6E6E" transform="translate(194,120)"/>
<path d="M0 0 C7.59 0 15.18 0 23 0 C19.625 12.375 19.625 12.375 17.51953125 18.19921875 C17.07802734 19.42705078 16.63652344 20.65488281 16.18164062 21.91992188 C15.72535398 23.17581525 15.26897268 24.43167423 14.8125 25.6875 C14.34401174 26.98618775 13.8759104 28.28501515 13.40820312 29.58398438 C12.27592119 32.72402396 11.13849145 35.86220648 10 39 C3.73 39 -2.54 39 -9 39 C-6.75 28.875 -6.75 28.875 -5.0546875 24.52734375 C-4.70019531 23.60888672 -4.34570312 22.69042969 -3.98046875 21.74414062 C-3.61566406 20.81794922 -3.25085938 19.89175781 -2.875 18.9375 C-2.50246094 17.97650391 -2.12992188 17.01550781 -1.74609375 16.02539062 C-0.83644515 13.68129617 0.07898954 11.33964819 1 9 C0.01 9 -0.98 9 -2 9 C-1.34 6.03 -0.68 3.06 0 0 Z " fill="#4F4F4F" transform="translate(140,120)"/>
<path d="M0 0 C6.27 0 12.54 0 19 0 C16.57236065 9.57568855 13.34433261 18.71018718 10 28 C3.73 28 -2.54 28 -9 28 C-6.75 17.875 -6.75 17.875 -5.2734375 13.96484375 C-4.9640625 13.13662109 -4.6546875 12.30839844 -4.3359375 11.45507812 C-3.86027344 10.20887695 -3.86027344 10.20887695 -3.375 8.9375 C-2.88773438 7.6390918 -2.88773438 7.6390918 -2.390625 6.31445312 C-1.59910589 4.20761548 -0.80031846 2.10351081 0 0 Z " fill="#B2B2B2" transform="translate(230,131)"/>
<path d="M0 0 C15.51 0 31.02 0 47 0 C46.34 2.97 45.68 5.94 45 9 C29.16 9 13.32 9 -3 9 C-2.01 6.03 -1.02 3.06 0 0 Z " fill="#BABABA" transform="translate(220,120)"/>
<path d="M0 0 C6.27 0 12.54 0 19 0 C18 5 18 5 16 9 C9.73 9 3.46 9 -3 9 C-2.01 6.03 -1.02 3.06 0 0 Z " fill="#878787" transform="translate(188,150)"/>
<path d="M0 0 C5.94 0 11.88 0 18 0 C17 6 17 6 16 9 C9.73 9 3.46 9 -3 9 C-2 4 -2 4 0 0 Z " fill="#D9D9D9" transform="translate(262,150)"/>
</svg>
